# xmcd
# Copyright (c) 1998 CDDB Inc.
#
# Track frame offsets:
#	150
#	17097
#	29361
#	50991
#	67464
#	87986
#	110549
#	121893
#	136566
#	152585
#
# Disc length: 2295 seconds
#
# Revision: 0
# Processed by: cddbd v1.4PL0 Copyright (c) Steve Scherf et al.
# Submitted via: audiograbber 1.70
#
DISCID=8708f50a
DTITLE=Лесоповал - Первый альбом
DYEAR=1900
DGENRE=
TTITLE0=Лесоповал
TTITLE1=Цыганочка
TTITLE2=Чёрный ангел
TTITLE3=Срок
TTITLE4=Париж
TTITLE5=Наганчик
TTITLE6=Сон в руку
TTITLE7=Дай рублик
TTITLE8=Дочь путанки и чекиста
TTITLE9=Кресты
EXTD=
EXTT0=
EXTT1=
EXTT2=
EXTT3=
EXTT4=
EXTT5=
EXTT6=
EXTT7=
EXTT8=
EXTT9=
PLAYORDER=
